<mxfile host="Electron" agent="Mozilla/5.0 (Windows NT 10.0; Win64; x64) AppleWebKit/537.36 (KHTML, like Gecko) draw.io/25.0.2 Chrome/128.0.6613.186 Electron/32.2.5 Safari/537.36" version="25.0.2">
  <diagram id="C5RBs43oDa-KdzZeNtuy" name="Page-1">
    <mxGraphModel dx="819" dy="546" grid="1" gridSize="10" guides="1" tooltips="1" connect="1" arrows="1" fold="1" page="1" pageScale="1" pageWidth="827" pageHeight="1169" math="0" shadow="0">
      <root>
        <mxCell id="WIyWlLk6GJQsqaUBKTNV-0" />
        <mxCell id="WIyWlLk6GJQsqaUBKTNV-1" parent="WIyWlLk6GJQsqaUBKTNV-0" />
        <mxCell id="srIpkH8AZoVfI17KtcB7-21" value="Так" style="text;html=1;align=center;verticalAlign=middle;whiteSpace=wrap;rounded=0;" vertex="1" parent="WIyWlLk6GJQsqaUBKTNV-1">
          <mxGeometry x="270" y="693" width="40" height="20" as="geometry" />
        </mxCell>
        <mxCell id="srIpkH8AZoVfI17KtcB7-22" value="Ні" style="text;html=1;align=center;verticalAlign=middle;whiteSpace=wrap;rounded=0;" vertex="1" parent="WIyWlLk6GJQsqaUBKTNV-1">
          <mxGeometry x="440" y="688" width="60" height="30" as="geometry" />
        </mxCell>
        <mxCell id="srIpkH8AZoVfI17KtcB7-43" value="Зберегти у відповідний .ssv файл:" style="swimlane;fontStyle=0;childLayout=stackLayout;horizontal=1;startSize=20;horizontalStack=0;resizeParent=1;resizeParentMax=0;resizeLast=0;collapsible=1;marginBottom=0;whiteSpace=wrap;html=1;align=left;fontSize=9;" vertex="1" parent="WIyWlLk6GJQsqaUBKTNV-1">
          <mxGeometry x="300" y="878" width="180" height="120" as="geometry" />
        </mxCell>
        <mxCell id="srIpkH8AZoVfI17KtcB7-44" value="- стан системи (sv1)" style="text;strokeColor=none;fillColor=none;align=left;verticalAlign=middle;spacingLeft=4;spacingRight=4;overflow=hidden;points=[[0,0.5],[1,0.5]];portConstraint=eastwest;rotatable=0;whiteSpace=wrap;html=1;fontSize=9;" vertex="1" parent="srIpkH8AZoVfI17KtcB7-43">
          <mxGeometry y="20" width="180" height="20" as="geometry" />
        </mxCell>
        <mxCell id="srIpkH8AZoVfI17KtcB7-45" value="- стан системи (sv2)" style="text;strokeColor=none;fillColor=none;align=left;verticalAlign=middle;spacingLeft=4;spacingRight=4;overflow=hidden;points=[[0,0.5],[1,0.5]];portConstraint=eastwest;rotatable=0;whiteSpace=wrap;html=1;fontSize=9;" vertex="1" parent="srIpkH8AZoVfI17KtcB7-43">
          <mxGeometry y="40" width="180" height="20" as="geometry" />
        </mxCell>
        <mxCell id="srIpkH8AZoVfI17KtcB7-46" value="- імовірність появи стану sv1" style="text;strokeColor=none;fillColor=none;align=left;verticalAlign=middle;spacingLeft=4;spacingRight=4;overflow=hidden;points=[[0,0.5],[1,0.5]];portConstraint=eastwest;rotatable=0;whiteSpace=wrap;html=1;fontSize=9;" vertex="1" parent="srIpkH8AZoVfI17KtcB7-43">
          <mxGeometry y="60" width="180" height="20" as="geometry" />
        </mxCell>
        <mxCell id="srIpkH8AZoVfI17KtcB7-119" value="- значення &quot;координат&quot; вектору sv1" style="text;strokeColor=none;fillColor=none;align=left;verticalAlign=middle;spacingLeft=4;spacingRight=4;overflow=hidden;points=[[0,0.5],[1,0.5]];portConstraint=eastwest;rotatable=0;whiteSpace=wrap;html=1;fontSize=9;" vertex="1" parent="srIpkH8AZoVfI17KtcB7-43">
          <mxGeometry y="80" width="180" height="20" as="geometry" />
        </mxCell>
        <mxCell id="srIpkH8AZoVfI17KtcB7-120" value="- значення &quot;координат&quot; вектору sv2" style="text;strokeColor=none;fillColor=none;align=left;verticalAlign=middle;spacingLeft=4;spacingRight=4;overflow=hidden;points=[[0,0.5],[1,0.5]];portConstraint=eastwest;rotatable=0;whiteSpace=wrap;html=1;fontSize=9;" vertex="1" parent="srIpkH8AZoVfI17KtcB7-43">
          <mxGeometry y="100" width="180" height="20" as="geometry" />
        </mxCell>
        <mxCell id="srIpkH8AZoVfI17KtcB7-59" value="&lt;b&gt;файл: alrorithm.ixx&lt;/b&gt;&lt;div style=&quot;&quot;&gt;клас: SchemeReliabilityCalculator&lt;/div&gt;" style="text;html=1;align=left;verticalAlign=middle;whiteSpace=wrap;rounded=0;" vertex="1" parent="WIyWlLk6GJQsqaUBKTNV-1">
          <mxGeometry x="10" y="10" width="220" height="40" as="geometry" />
        </mxCell>
        <mxCell id="srIpkH8AZoVfI17KtcB7-77" style="edgeStyle=orthogonalEdgeStyle;rounded=0;orthogonalLoop=1;jettySize=auto;html=1;entryX=0;entryY=0.5;entryDx=0;entryDy=0;" edge="1" parent="WIyWlLk6GJQsqaUBKTNV-1" source="srIpkH8AZoVfI17KtcB7-63" target="srIpkH8AZoVfI17KtcB7-71">
          <mxGeometry relative="1" as="geometry">
            <Array as="points">
              <mxPoint x="310" y="120" />
              <mxPoint x="310" y="60" />
            </Array>
          </mxGeometry>
        </mxCell>
        <mxCell id="srIpkH8AZoVfI17KtcB7-78" style="edgeStyle=orthogonalEdgeStyle;rounded=0;orthogonalLoop=1;jettySize=auto;html=1;entryX=0;entryY=0.5;entryDx=0;entryDy=0;" edge="1" parent="WIyWlLk6GJQsqaUBKTNV-1" source="srIpkH8AZoVfI17KtcB7-63" target="srIpkH8AZoVfI17KtcB7-72">
          <mxGeometry relative="1" as="geometry">
            <Array as="points">
              <mxPoint x="310" y="120" />
              <mxPoint x="310" y="140" />
            </Array>
          </mxGeometry>
        </mxCell>
        <mxCell id="srIpkH8AZoVfI17KtcB7-79" style="edgeStyle=orthogonalEdgeStyle;rounded=0;orthogonalLoop=1;jettySize=auto;html=1;entryX=0;entryY=0.5;entryDx=0;entryDy=0;" edge="1" parent="WIyWlLk6GJQsqaUBKTNV-1" source="srIpkH8AZoVfI17KtcB7-63" target="srIpkH8AZoVfI17KtcB7-73">
          <mxGeometry relative="1" as="geometry">
            <Array as="points">
              <mxPoint x="310" y="120" />
              <mxPoint x="310" y="260" />
            </Array>
          </mxGeometry>
        </mxCell>
        <mxCell id="srIpkH8AZoVfI17KtcB7-63" value="Множина векторів станів системи (2^n)" style="rounded=0;whiteSpace=wrap;html=1;" vertex="1" parent="WIyWlLk6GJQsqaUBKTNV-1">
          <mxGeometry x="30" y="80" width="160" height="80" as="geometry" />
        </mxCell>
        <mxCell id="srIpkH8AZoVfI17KtcB7-65" value="state_vector_processor_1" style="rounded=0;whiteSpace=wrap;html=1;" vertex="1" parent="WIyWlLk6GJQsqaUBKTNV-1">
          <mxGeometry x="519" y="40" width="200" height="40" as="geometry" />
        </mxCell>
        <mxCell id="srIpkH8AZoVfI17KtcB7-66" value="state_vector_processor_2" style="rounded=0;whiteSpace=wrap;html=1;" vertex="1" parent="WIyWlLk6GJQsqaUBKTNV-1">
          <mxGeometry x="519" y="120" width="200" height="40" as="geometry" />
        </mxCell>
        <mxCell id="srIpkH8AZoVfI17KtcB7-67" value="state_vector_processor_k" style="rounded=0;whiteSpace=wrap;html=1;" vertex="1" parent="WIyWlLk6GJQsqaUBKTNV-1">
          <mxGeometry x="519" y="240" width="200" height="40" as="geometry" />
        </mxCell>
        <mxCell id="srIpkH8AZoVfI17KtcB7-68" value="" style="shape=waypoint;sketch=0;fillStyle=solid;size=6;pointerEvents=1;points=[];fillColor=none;resizable=0;rotatable=0;perimeter=centerPerimeter;snapToPoint=1;" vertex="1" parent="WIyWlLk6GJQsqaUBKTNV-1">
          <mxGeometry x="603" y="170" width="20" height="20" as="geometry" />
        </mxCell>
        <mxCell id="srIpkH8AZoVfI17KtcB7-69" value="" style="shape=waypoint;sketch=0;fillStyle=solid;size=6;pointerEvents=1;points=[];fillColor=none;resizable=0;rotatable=0;perimeter=centerPerimeter;snapToPoint=1;" vertex="1" parent="WIyWlLk6GJQsqaUBKTNV-1">
          <mxGeometry x="603" y="190" width="20" height="20" as="geometry" />
        </mxCell>
        <mxCell id="srIpkH8AZoVfI17KtcB7-70" value="" style="shape=waypoint;sketch=0;fillStyle=solid;size=6;pointerEvents=1;points=[];fillColor=none;resizable=0;rotatable=0;perimeter=centerPerimeter;snapToPoint=1;" vertex="1" parent="WIyWlLk6GJQsqaUBKTNV-1">
          <mxGeometry x="603" y="210" width="20" height="20" as="geometry" />
        </mxCell>
        <mxCell id="srIpkH8AZoVfI17KtcB7-71" value="queue 1" style="rounded=0;whiteSpace=wrap;html=1;" vertex="1" parent="WIyWlLk6GJQsqaUBKTNV-1">
          <mxGeometry x="360" y="40" width="80" height="40" as="geometry" />
        </mxCell>
        <mxCell id="srIpkH8AZoVfI17KtcB7-88" style="edgeStyle=orthogonalEdgeStyle;rounded=0;orthogonalLoop=1;jettySize=auto;html=1;entryX=0;entryY=0.5;entryDx=0;entryDy=0;" edge="1" parent="WIyWlLk6GJQsqaUBKTNV-1" source="srIpkH8AZoVfI17KtcB7-72" target="srIpkH8AZoVfI17KtcB7-66">
          <mxGeometry relative="1" as="geometry" />
        </mxCell>
        <mxCell id="srIpkH8AZoVfI17KtcB7-72" value="queue 2" style="rounded=0;whiteSpace=wrap;html=1;" vertex="1" parent="WIyWlLk6GJQsqaUBKTNV-1">
          <mxGeometry x="360" y="120" width="80" height="40" as="geometry" />
        </mxCell>
        <mxCell id="srIpkH8AZoVfI17KtcB7-89" style="edgeStyle=orthogonalEdgeStyle;rounded=0;orthogonalLoop=1;jettySize=auto;html=1;entryX=0;entryY=0.5;entryDx=0;entryDy=0;" edge="1" parent="WIyWlLk6GJQsqaUBKTNV-1" source="srIpkH8AZoVfI17KtcB7-73" target="srIpkH8AZoVfI17KtcB7-67">
          <mxGeometry relative="1" as="geometry" />
        </mxCell>
        <mxCell id="srIpkH8AZoVfI17KtcB7-73" value="queue k" style="rounded=0;whiteSpace=wrap;html=1;" vertex="1" parent="WIyWlLk6GJQsqaUBKTNV-1">
          <mxGeometry x="360" y="240" width="80" height="40" as="geometry" />
        </mxCell>
        <mxCell id="srIpkH8AZoVfI17KtcB7-74" value="" style="shape=waypoint;sketch=0;fillStyle=solid;size=6;pointerEvents=1;points=[];fillColor=none;resizable=0;rotatable=0;perimeter=centerPerimeter;snapToPoint=1;" vertex="1" parent="WIyWlLk6GJQsqaUBKTNV-1">
          <mxGeometry x="392" y="170" width="20" height="20" as="geometry" />
        </mxCell>
        <mxCell id="srIpkH8AZoVfI17KtcB7-75" value="" style="shape=waypoint;sketch=0;fillStyle=solid;size=6;pointerEvents=1;points=[];fillColor=none;resizable=0;rotatable=0;perimeter=centerPerimeter;snapToPoint=1;" vertex="1" parent="WIyWlLk6GJQsqaUBKTNV-1">
          <mxGeometry x="392" y="190" width="20" height="20" as="geometry" />
        </mxCell>
        <mxCell id="srIpkH8AZoVfI17KtcB7-76" value="" style="shape=waypoint;sketch=0;fillStyle=solid;size=6;pointerEvents=1;points=[];fillColor=none;resizable=0;rotatable=0;perimeter=centerPerimeter;snapToPoint=1;" vertex="1" parent="WIyWlLk6GJQsqaUBKTNV-1">
          <mxGeometry x="392" y="210" width="20" height="20" as="geometry" />
        </mxCell>
        <mxCell id="srIpkH8AZoVfI17KtcB7-81" value="" style="endArrow=classic;html=1;rounded=0;" edge="1" parent="WIyWlLk6GJQsqaUBKTNV-1">
          <mxGeometry width="50" height="50" relative="1" as="geometry">
            <mxPoint x="310" y="180" as="sourcePoint" />
            <mxPoint x="360" y="180" as="targetPoint" />
          </mxGeometry>
        </mxCell>
        <mxCell id="srIpkH8AZoVfI17KtcB7-82" value="" style="endArrow=classic;html=1;rounded=0;" edge="1" parent="WIyWlLk6GJQsqaUBKTNV-1">
          <mxGeometry width="50" height="50" relative="1" as="geometry">
            <mxPoint x="310" y="200" as="sourcePoint" />
            <mxPoint x="360" y="200" as="targetPoint" />
          </mxGeometry>
        </mxCell>
        <mxCell id="srIpkH8AZoVfI17KtcB7-83" value="" style="endArrow=classic;html=1;rounded=0;" edge="1" parent="WIyWlLk6GJQsqaUBKTNV-1">
          <mxGeometry width="50" height="50" relative="1" as="geometry">
            <mxPoint x="310" y="220" as="sourcePoint" />
            <mxPoint x="360" y="220" as="targetPoint" />
          </mxGeometry>
        </mxCell>
        <mxCell id="srIpkH8AZoVfI17KtcB7-84" value="вектор станів" style="text;html=1;align=center;verticalAlign=middle;whiteSpace=wrap;rounded=0;" vertex="1" parent="WIyWlLk6GJQsqaUBKTNV-1">
          <mxGeometry x="200" y="100" width="80" height="15" as="geometry" />
        </mxCell>
        <mxCell id="srIpkH8AZoVfI17KtcB7-85" value="" style="shape=curlyBracket;whiteSpace=wrap;html=1;rounded=1;labelPosition=left;verticalLabelPosition=middle;align=right;verticalAlign=middle;" vertex="1" parent="WIyWlLk6GJQsqaUBKTNV-1">
          <mxGeometry x="280" y="30" width="20" height="260" as="geometry" />
        </mxCell>
        <mxCell id="srIpkH8AZoVfI17KtcB7-86" value="" style="endArrow=classic;html=1;rounded=0;exitX=1;exitY=0.5;exitDx=0;exitDy=0;entryX=0;entryY=0.5;entryDx=0;entryDy=0;" edge="1" parent="WIyWlLk6GJQsqaUBKTNV-1" source="srIpkH8AZoVfI17KtcB7-71" target="srIpkH8AZoVfI17KtcB7-65">
          <mxGeometry width="50" height="50" relative="1" as="geometry">
            <mxPoint x="435" y="370" as="sourcePoint" />
            <mxPoint x="485" y="320" as="targetPoint" />
          </mxGeometry>
        </mxCell>
        <mxCell id="srIpkH8AZoVfI17KtcB7-90" value="" style="endArrow=classic;html=1;rounded=0;" edge="1" parent="WIyWlLk6GJQsqaUBKTNV-1">
          <mxGeometry width="50" height="50" relative="1" as="geometry">
            <mxPoint x="458" y="179.76" as="sourcePoint" />
            <mxPoint x="508" y="179.76" as="targetPoint" />
          </mxGeometry>
        </mxCell>
        <mxCell id="srIpkH8AZoVfI17KtcB7-91" value="" style="endArrow=classic;html=1;rounded=0;" edge="1" parent="WIyWlLk6GJQsqaUBKTNV-1">
          <mxGeometry width="50" height="50" relative="1" as="geometry">
            <mxPoint x="458" y="199.76" as="sourcePoint" />
            <mxPoint x="508" y="199.76" as="targetPoint" />
          </mxGeometry>
        </mxCell>
        <mxCell id="srIpkH8AZoVfI17KtcB7-92" value="" style="endArrow=classic;html=1;rounded=0;" edge="1" parent="WIyWlLk6GJQsqaUBKTNV-1">
          <mxGeometry width="50" height="50" relative="1" as="geometry">
            <mxPoint x="458" y="219.76" as="sourcePoint" />
            <mxPoint x="508" y="219.76" as="targetPoint" />
          </mxGeometry>
        </mxCell>
        <mxCell id="srIpkH8AZoVfI17KtcB7-93" value="розподіл векторів станів між StateVectorProcessor-ами за принципом round robin&amp;nbsp;" style="text;html=1;align=center;verticalAlign=middle;whiteSpace=wrap;rounded=0;fontSize=8;rotation=-90;" vertex="1" parent="WIyWlLk6GJQsqaUBKTNV-1">
          <mxGeometry x="170" y="205" width="170" height="30" as="geometry" />
        </mxCell>
        <mxCell id="srIpkH8AZoVfI17KtcB7-94" value="" style="shape=curlyBracket;whiteSpace=wrap;html=1;rounded=1;flipH=1;labelPosition=right;verticalLabelPosition=middle;align=left;verticalAlign=middle;" vertex="1" parent="WIyWlLk6GJQsqaUBKTNV-1">
          <mxGeometry x="740" y="30" width="20" height="260" as="geometry" />
        </mxCell>
        <mxCell id="srIpkH8AZoVfI17KtcB7-108" style="edgeStyle=orthogonalEdgeStyle;rounded=0;orthogonalLoop=1;jettySize=auto;html=1;entryX=0.5;entryY=0;entryDx=0;entryDy=0;" edge="1" parent="WIyWlLk6GJQsqaUBKTNV-1" source="srIpkH8AZoVfI17KtcB7-97">
          <mxGeometry relative="1" as="geometry">
            <mxPoint x="379.75" y="638" as="targetPoint" />
          </mxGeometry>
        </mxCell>
        <mxCell id="srIpkH8AZoVfI17KtcB7-97" value="Вектор станів системи sv2 = реконфігурація(sv1)" style="rounded=0;whiteSpace=wrap;html=1;" vertex="1" parent="WIyWlLk6GJQsqaUBKTNV-1">
          <mxGeometry x="240" y="558" width="280" height="40" as="geometry" />
        </mxCell>
        <mxCell id="srIpkH8AZoVfI17KtcB7-106" style="edgeStyle=orthogonalEdgeStyle;rounded=0;orthogonalLoop=1;jettySize=auto;html=1;entryX=0.5;entryY=0;entryDx=0;entryDy=0;" edge="1" parent="WIyWlLk6GJQsqaUBKTNV-1" source="srIpkH8AZoVfI17KtcB7-100" target="srIpkH8AZoVfI17KtcB7-97">
          <mxGeometry relative="1" as="geometry" />
        </mxCell>
        <mxCell id="srIpkH8AZoVfI17KtcB7-100" value="Обчислити імовірність появи вектору станів sv1" style="rounded=0;whiteSpace=wrap;html=1;" vertex="1" parent="WIyWlLk6GJQsqaUBKTNV-1">
          <mxGeometry x="240" y="478" width="279.5" height="40" as="geometry" />
        </mxCell>
        <mxCell id="srIpkH8AZoVfI17KtcB7-127" style="edgeStyle=orthogonalEdgeStyle;rounded=0;orthogonalLoop=1;jettySize=auto;html=1;entryX=0.5;entryY=0;entryDx=0;entryDy=0;" edge="1" parent="WIyWlLk6GJQsqaUBKTNV-1" source="srIpkH8AZoVfI17KtcB7-110" target="srIpkH8AZoVfI17KtcB7-43">
          <mxGeometry relative="1" as="geometry" />
        </mxCell>
        <mxCell id="srIpkH8AZoVfI17KtcB7-110" value="імовірність працездатності системи +=&amp;nbsp;&lt;span style=&quot;background-color: initial;&quot;&gt;імовірність появи вектору sv1&lt;/span&gt;" style="rounded=0;whiteSpace=wrap;html=1;" vertex="1" parent="WIyWlLk6GJQsqaUBKTNV-1">
          <mxGeometry x="100" y="758" width="220" height="40" as="geometry" />
        </mxCell>
        <mxCell id="srIpkH8AZoVfI17KtcB7-126" style="edgeStyle=orthogonalEdgeStyle;rounded=0;orthogonalLoop=1;jettySize=auto;html=1;entryX=0.5;entryY=0;entryDx=0;entryDy=0;" edge="1" parent="WIyWlLk6GJQsqaUBKTNV-1" source="srIpkH8AZoVfI17KtcB7-111" target="srIpkH8AZoVfI17KtcB7-43">
          <mxGeometry relative="1" as="geometry" />
        </mxCell>
        <mxCell id="srIpkH8AZoVfI17KtcB7-111" value="імовірність відмови системи +=&amp;nbsp;&lt;span style=&quot;background-color: initial;&quot;&gt;імовірність появи вектору sv1&lt;/span&gt;" style="rounded=0;whiteSpace=wrap;html=1;" vertex="1" parent="WIyWlLk6GJQsqaUBKTNV-1">
          <mxGeometry x="440" y="758" width="220" height="40" as="geometry" />
        </mxCell>
        <mxCell id="srIpkH8AZoVfI17KtcB7-115" value="n - кількість елементів схеми" style="text;html=1;align=center;verticalAlign=middle;whiteSpace=wrap;rounded=0;" vertex="1" parent="WIyWlLk6GJQsqaUBKTNV-1">
          <mxGeometry x="20" y="190" width="160" height="30" as="geometry" />
        </mxCell>
        <mxCell id="srIpkH8AZoVfI17KtcB7-116" value="k - кількість потоків cpu" style="text;html=1;align=center;verticalAlign=middle;whiteSpace=wrap;rounded=0;" vertex="1" parent="WIyWlLk6GJQsqaUBKTNV-1">
          <mxGeometry x="10" y="235" width="190" height="30" as="geometry" />
        </mxCell>
        <mxCell id="srIpkH8AZoVfI17KtcB7-130" style="edgeStyle=orthogonalEdgeStyle;rounded=0;orthogonalLoop=1;jettySize=auto;html=1;entryX=0.5;entryY=0;entryDx=0;entryDy=0;" edge="1" parent="WIyWlLk6GJQsqaUBKTNV-1" source="srIpkH8AZoVfI17KtcB7-129" target="srIpkH8AZoVfI17KtcB7-110">
          <mxGeometry relative="1" as="geometry" />
        </mxCell>
        <mxCell id="srIpkH8AZoVfI17KtcB7-131" style="edgeStyle=orthogonalEdgeStyle;rounded=0;orthogonalLoop=1;jettySize=auto;html=1;entryX=0.5;entryY=0;entryDx=0;entryDy=0;" edge="1" parent="WIyWlLk6GJQsqaUBKTNV-1" source="srIpkH8AZoVfI17KtcB7-129" target="srIpkH8AZoVfI17KtcB7-111">
          <mxGeometry relative="1" as="geometry" />
        </mxCell>
        <mxCell id="srIpkH8AZoVfI17KtcB7-129" value="стан системи (sv2) робочий ?" style="shape=hexagon;perimeter=hexagonPerimeter2;whiteSpace=wrap;html=1;fixedSize=1;" vertex="1" parent="WIyWlLk6GJQsqaUBKTNV-1">
          <mxGeometry x="315" y="638" width="130" height="40" as="geometry" />
        </mxCell>
        <mxCell id="srIpkH8AZoVfI17KtcB7-136" style="edgeStyle=orthogonalEdgeStyle;rounded=0;orthogonalLoop=1;jettySize=auto;html=1;entryX=0.5;entryY=0;entryDx=0;entryDy=0;" edge="1" parent="WIyWlLk6GJQsqaUBKTNV-1" source="srIpkH8AZoVfI17KtcB7-132" target="srIpkH8AZoVfI17KtcB7-100">
          <mxGeometry relative="1" as="geometry" />
        </mxCell>
        <mxCell id="srIpkH8AZoVfI17KtcB7-132" value="Вхідні дані:" style="swimlane;fontStyle=0;childLayout=stackLayout;horizontal=1;startSize=30;horizontalStack=0;resizeParent=1;resizeParentMax=0;resizeLast=0;collapsible=1;marginBottom=0;whiteSpace=wrap;html=1;align=left;" vertex="1" parent="WIyWlLk6GJQsqaUBKTNV-1">
          <mxGeometry x="299.75" y="380" width="160" height="60" as="geometry" />
        </mxCell>
        <mxCell id="srIpkH8AZoVfI17KtcB7-133" value="&lt;span style=&quot;text-align: center;&quot;&gt;Вектор станів системи sv1&lt;/span&gt;" style="text;strokeColor=none;fillColor=none;align=left;verticalAlign=middle;spacingLeft=4;spacingRight=4;overflow=hidden;points=[[0,0.5],[1,0.5]];portConstraint=eastwest;rotatable=0;whiteSpace=wrap;html=1;" vertex="1" parent="srIpkH8AZoVfI17KtcB7-132">
          <mxGeometry y="30" width="160" height="30" as="geometry" />
        </mxCell>
        <mxCell id="srIpkH8AZoVfI17KtcB7-138" value="обробка вектору станів системи" style="text;html=1;align=center;verticalAlign=middle;whiteSpace=wrap;rounded=0;" vertex="1" parent="WIyWlLk6GJQsqaUBKTNV-1">
          <mxGeometry x="580" y="350" width="130" height="30" as="geometry" />
        </mxCell>
        <mxCell id="srIpkH8AZoVfI17KtcB7-139" style="edgeStyle=orthogonalEdgeStyle;rounded=0;orthogonalLoop=1;jettySize=auto;html=1;entryX=0.1;entryY=0.5;entryDx=0;entryDy=0;entryPerimeter=0;endArrow=diamond;endFill=1;" edge="1" parent="WIyWlLk6GJQsqaUBKTNV-1" source="srIpkH8AZoVfI17KtcB7-132" target="srIpkH8AZoVfI17KtcB7-94">
          <mxGeometry relative="1" as="geometry">
            <Array as="points">
              <mxPoint x="380" y="320" />
              <mxPoint x="780" y="320" />
              <mxPoint x="780" y="160" />
            </Array>
          </mxGeometry>
        </mxCell>
      </root>
    </mxGraphModel>
  </diagram>
</mxfile>
